<svg width="30" height="12" viewBox="0 0 30 12" fill="none" xmlns="http://www.w3.org/2000/svg">
<path d="M0.0253906 0.978516H4.03125C4.82422 0.978516 5.41439 1.0127 5.80176 1.08105C6.19368 1.14486 6.54232 1.28158 6.84766 1.49121C7.15755 1.70085 7.41504 1.98112 7.62012 2.33203C7.8252 2.67839 7.92773 3.06803 7.92773 3.50098C7.92773 3.97038 7.80013 4.40104 7.54492 4.79297C7.29427 5.1849 6.95247 5.47884 6.51953 5.6748C7.13021 5.85254 7.59961 6.1556 7.92773 6.58398C8.25586 7.01237 8.41992 7.51595 8.41992 8.09473C8.41992 8.55046 8.31283 8.99479 8.09863 9.42773C7.889 9.85612 7.59961 10.2002 7.23047 10.46C6.86589 10.7152 6.41471 10.8724 5.87695 10.9316C5.53971 10.9681 4.72624 10.9909 3.43652 11H0.0253906V0.978516ZM2.04883 2.64648V4.96387H3.375C4.16341 4.96387 4.65332 4.95247 4.84473 4.92969C5.19108 4.88867 5.46224 4.77018 5.6582 4.57422C5.85872 4.3737 5.95898 4.11165 5.95898 3.78809C5.95898 3.47819 5.8724 3.22754 5.69922 3.03613C5.5306 2.84017 5.27767 2.72168 4.94043 2.68066C4.73991 2.65788 4.16341 2.64648 3.21094 2.64648H2.04883ZM2.04883 6.63184V9.31152H3.92188C4.65104 9.31152 5.11361 9.29102 5.30957 9.25C5.61035 9.19531 5.85417 9.06315 6.04102 8.85352C6.23242 8.63932 6.32812 8.35449 6.32812 7.99902C6.32812 7.69824 6.25521 7.44303 6.10938 7.2334C5.96354 7.02376 5.75163 6.87109 5.47363 6.77539C5.2002 6.67969 4.60319 6.63184 3.68262 6.63184H2.04883ZM16.5479 7.31543L18.5098 7.9375C18.209 9.03125 17.7077 9.84473 17.0059 10.3779C16.3086 10.9066 15.4222 11.1709 14.3467 11.1709C13.016 11.1709 11.9222 10.7174 11.0654 9.81055C10.2087 8.89909 9.78027 7.65495 9.78027 6.07812C9.78027 4.41016 10.2109 3.11589 11.0723 2.19531C11.9336 1.27018 13.0661 0.807617 14.4697 0.807617C15.6956 0.807617 16.6914 1.16992 17.457 1.89453C17.9128 2.32292 18.2546 2.93815 18.4824 3.74023L16.4795 4.21875C16.361 3.69922 16.1126 3.28906 15.7344 2.98828C15.3607 2.6875 14.9049 2.53711 14.3672 2.53711C13.6243 2.53711 13.0205 2.80371 12.5557 3.33691C12.0954 3.87012 11.8652 4.73372 11.8652 5.92773C11.8652 7.19466 12.0931 8.09701 12.5488 8.63477C13.0046 9.17253 13.597 9.44141 14.3262 9.44141C14.8639 9.44141 15.3265 9.27051 15.7139 8.92871C16.1012 8.58691 16.3792 8.04915 16.5479 7.31543ZM20.2598 11V0.978516H24.5186C25.5895 0.978516 26.3665 1.06966 26.8496 1.25195C27.3372 1.42969 27.7269 1.7487 28.0186 2.20898C28.3102 2.66927 28.4561 3.19564 28.4561 3.78809C28.4561 4.54004 28.235 5.16211 27.793 5.6543C27.3509 6.14193 26.6901 6.44954 25.8105 6.57715C26.248 6.83236 26.6081 7.11263 26.8906 7.41797C27.1777 7.72331 27.5628 8.26562 28.0459 9.04492L29.2695 11H26.8496L25.3867 8.81934C24.8672 8.04004 24.5117 7.55013 24.3203 7.34961C24.1289 7.14453 23.9261 7.00553 23.7119 6.93262C23.4977 6.85514 23.1582 6.81641 22.6934 6.81641H22.2832V11H20.2598ZM22.2832 5.2168H23.7803C24.751 5.2168 25.3571 5.17578 25.5986 5.09375C25.8402 5.01172 26.0293 4.87044 26.166 4.66992C26.3027 4.4694 26.3711 4.21875 26.3711 3.91797C26.3711 3.58073 26.2799 3.30957 26.0977 3.10449C25.9199 2.89486 25.667 2.7627 25.3389 2.70801C25.1748 2.68522 24.6826 2.67383 23.8623 2.67383H22.2832V5.2168Z" fill="black"/>
</svg>
