<svg width="32" height="32" viewBox="0 0 32 32" fill="none" xmlns="http://www.w3.org/2000/svg">
<circle cx="16" cy="16" r="16" fill="#F9CC00"/>
<path d="M11.8334 24.3333H9.33341C8.89139 24.3333 8.46746 24.1577 8.1549 23.8452C7.84234 23.5326 7.66675 23.1087 7.66675 22.6667V16.8333C7.66675 16.3913 7.84234 15.9674 8.1549 15.6548C8.46746 15.3423 8.89139 15.1667 9.33341 15.1667H11.8334M17.6667 13.5V10.1667C17.6667 9.50362 17.4034 8.86773 16.9345 8.39889C16.4657 7.93005 15.8298 7.66666 15.1667 7.66666L11.8334 15.1667V24.3333H21.2334C21.6354 24.3379 22.0254 24.197 22.3317 23.9367C22.6379 23.6763 22.8398 23.3141 22.9001 22.9167L24.0501 15.4167C24.0863 15.1778 24.0702 14.9339 24.0029 14.7019C23.9355 14.4698 23.8185 14.2552 23.66 14.0729C23.5014 13.8906 23.3051 13.7449 23.0847 13.646C22.8643 13.5471 22.625 13.4973 22.3834 13.5H17.6667Z" stroke="white" stroke-width="2" stroke-linecap="round" stroke-linejoin="round"/>
</svg>
